{"glyphs":{":":{"x_min":0,"x_max":604,"ha":604,"o":"m 266 542 l 348 542 q 366 542 378 529 q 390 516 390 501 l 390 430 q 390 414 378 401 q 365 389 349 389 l 265 389 q 248 389 237 401 q 225 413 225 430 l 225 501 q 225 518 237 530 q 249 542 266 542 z m 266 259 l 348 259 q 365 259 378 247 q 390 235 390 218 l 390 148 q 390 131 378 118 q 366 106 349 106 l 265 106 q 248 106 237 118 q 225 130 225 147 l 225 218 q 225 235 237 247 q 249 259 266 259 z"},"$":{"x_min":0,"x_max":604,"ha":604,"o":"m 515 325 l 515 183 q 515 167 503 154 q 490 142 473 142 l 348 142 l 348 42 q 348 25 336 13 q 324 1 307 1 q 290 1 277 13 q 265 25 265 42 l 265 143 l 141 143 q 125 143 112 155 q 100 167 100 184 q 100 201 112 213 q 124 225 141 225 l 431 225 l 431 284 l 142 284 q 125 284 113 296 q 101 308 101 325 l 101 467 q 101 484 113 496 q 125 508 142 508 l 265 508 l 265 608 q 265 625 277 637 q 288 649 308 649 q 324 649 336 637 q 348 625 348 608 l 348 508 l 474 508 q 491 508 504 496 q 516 483 516 467 q 516 450 504 437 q 491 425 474 425 l 184 425 l 184 366 l 473 366 q 490 366 503 354 q 515 342 515 325 z"},"?":{"x_min":0,"x_max":604,"ha":604,"o":"m 514 438 l 277 234 l 277 183 q 277 167 265 154 q 252 142 236 142 q 219 142 207 154 q 195 167 195 183 l 195 251 q 195 273 208 284 l 442 486 l 442 516 l 401 553 l 183 366 q 168 354 152 354 q 137 354 125 365 q 112 377 112 396 q 112 416 123 425 l 375 639 q 386 648 402 648 q 417 648 427 640 l 511 567 q 525 556 525 536 l 525 466 q 525 447 514 438 z m 235 84 q 252 84 264 72 q 276 59 276 42 q 276 25 264 13 q 252 1 235 1 q 218 1 206 13 q 194 25 194 42 q 194 59 206 72 q 218 84 235 84 z"},"<":{"x_min":0,"x_max":604,"ha":604,"o":"m 101 309 l 101 341 q 101 365 126 380 l 449 571 q 462 580 476 580 q 491 580 504 567 q 516 555 516 538 q 516 515 498 504 l 196 325 l 498 147 q 516 135 516 112 q 516 95 504 83 q 491 70 476 70 q 463 70 449 79 l 126 270 q 101 284 101 309 z"},"'":{"x_min":0,"x_max":604,"ha":604,"o":"m 269 649 l 350 649 q 367 649 379 636 q 392 624 392 607 q 392 602 390 597 l 308 315 q 298 284 268 284 q 250 284 238 297 q 226 310 226 328 l 226 603 q 226 623 238 636 q 249 649 269 649 z"},"=":{"x_min":0,"x_max":604,"ha":604,"o":"m 472 390 l 140 390 q 124 390 111 402 q 99 415 99 431 q 99 448 111 460 q 124 472 140 472 l 472 472 q 489 472 501 460 q 513 448 513 431 q 513 414 501 402 q 489 390 472 390 z m 472 213 l 140 213 q 124 213 111 225 q 99 238 99 255 q 99 272 111 284 q 124 296 140 296 l 472 296 q 489 296 501 284 q 513 271 513 255 q 513 238 501 225 q 489 213 472 213 z"},"a":{"x_min":0,"x_max":604,"ha":604,"o":"m 223 296 l 384 296 q 397 296 422 290 l 421 348 q 421 365 409 377 q 397 389 380 389 l 224 389 q 208 389 195 401 q 183 414 183 430 q 183 447 195 459 q 207 471 224 471 l 380 471 q 431 471 467 436 q 502 400 504 348 l 514 41 q 514 24 502 12 q 490 0 473 0 q 456 0 443 12 q 431 24 431 41 l 362 0 l 223 0 q 171 0 135 36 q 99 72 99 124 l 99 172 q 99 223 135 260 q 172 296 223 296 z m 428 136 l 426 171 q 425 188 414 200 q 402 212 385 212 l 223 212 q 206 212 194 200 q 182 188 182 171 l 182 125 q 182 108 194 96 q 207 84 223 84 l 339 84 z"},"L":{"x_min":0,"x_max":604,"ha":604,"o":"m 101 0 l 101 608 q 101 625 113 637 q 125 649 142 649 q 159 649 171 637 q 183 625 183 608 l 183 82 l 473 82 q 490 82 503 70 q 515 58 515 41 q 515 24 503 12 q 490 0 473 0 z"},"3":{"x_min":0,"x_max":604,"ha":604,"o":"m 514 567 l 514 413 q 514 359 481 326 q 515 288 515 243 l 515 83 q 515 49 491 25 q 466 1 432 1 l 142 1 q 125 1 113 13 q 101 25 101 42 q 101 59 113 71 q 125 83 142 83 l 431 83 l 431 243 q 431 260 419 273 q 407 285 390 285 l 225 285 q 208 285 196 297 q 184 309 184 326 q 184 343 196 355 q 208 367 225 367 l 391 367 q 408 367 420 379 q 432 391 432 408 l 432 567 l 139 567 q 122 567 110 579 q 98 591 98 608 q 98 625 110 637 q 122 649 139 649 l 432 649 q 466 649 490 625 q 514 601 514 567 z"},";":{"x_min":0,"x_max":604,"ha":604,"o":"m 223 579 l 306 579 q 323 579 335 567 q 347 555 347 538 l 347 468 q 347 451 335 439 q 323 427 306 427 l 223 427 q 206 427 194 439 q 182 451 182 468 l 182 538 q 182 555 194 567 q 207 579 223 579 z m 428 255 l 428 42 q 428 25 416 13 q 404 1 387 1 q 370 1 357 13 q 345 25 345 42 l 345 214 l 220 214 q 204 214 192 226 q 180 239 180 256 q 180 272 192 285 q 204 297 221 297 l 387 297 q 403 297 416 284 q 428 272 428 255 z"},"J":{"x_min":0,"x_max":604,"ha":604,"o":"m 141 124 l 141 254 q 141 271 153 283 q 165 295 182 295 q 199 295 211 283 q 223 271 223 254 l 223 123 q 223 106 235 95 q 248 83 265 83 l 348 83 q 365 83 378 95 q 390 107 390 124 l 390 608 q 390 625 402 637 q 414 649 430 649 q 447 649 459 636 q 472 623 472 606 l 472 124 q 472 72 435 36 q 397 0 348 0 l 265 0 q 214 0 177 37 q 141 73 141 124 z"},"V":{"x_min":0,"x_max":604,"ha":604,"o":"m 516 607 l 516 456 l 349 31 q 336 0 309 0 q 280 0 268 31 l 102 456 l 102 607 q 102 625 114 637 q 126 649 143 649 q 160 649 172 637 q 184 625 184 607 l 184 473 l 309 155 l 434 472 l 434 607 q 434 625 446 637 q 458 649 475 649 q 492 649 504 637 q 516 625 516 607 z"},"\"":{"x_min":0,"x_max":604,"ha":604,"o":"m 99 650 l 513 650 l 513 612 l 472 391 q 465 356 430 356 q 396 356 389 391 l 354 567 l 259 567 l 223 390 q 215 355 182 355 q 146 355 140 390 l 99 612 z"},"7":{"x_min":0,"x_max":604,"ha":604,"o":"m 99 572 l 99 607 q 99 624 111 636 q 123 648 140 648 l 512 648 l 512 396 q 512 376 497 363 l 346 234 l 346 43 q 346 26 334 13 q 322 1 305 1 q 288 1 276 13 q 263 25 263 42 l 263 249 q 263 272 278 285 l 429 413 l 429 566 l 181 566 q 172 531 140 531 q 123 531 111 543 q 99 555 99 572 z"},"S":{"x_min":0,"x_max":604,"ha":604,"o":"m 194 649 l 407 649 q 446 649 481 616 q 516 583 516 536 q 516 519 504 506 q 491 494 476 494 q 455 494 447 504 q 439 513 432 539 q 425 565 401 565 l 198 565 q 184 565 184 556 q 184 550 190 542 l 494 153 q 516 125 516 92 q 516 56 490 28 q 463 0 430 0 l 209 0 q 165 0 133 33 q 100 67 100 107 q 100 153 143 153 q 160 153 171 141 q 183 129 183 113 q 183 100 192 91 q 201 82 215 82 l 419 82 q 432 82 432 92 q 432 97 426 105 l 122 494 q 101 522 101 555 q 101 593 128 621 q 155 649 194 649 z"},"}":{"x_min":0,"x_max":604,"ha":604,"o":"m 268 83 l 268 243 q 268 293 301 325 q 268 355 268 406 l 268 567 l 143 567 q 126 567 114 579 q 102 591 102 608 q 102 625 114 637 q 126 649 143 649 l 268 649 q 301 649 326 624 q 350 599 350 567 l 350 409 q 350 392 363 379 q 375 366 392 366 l 474 366 q 491 366 503 354 q 515 342 515 325 q 515 308 503 295 q 491 283 474 283 l 392 283 q 375 283 362 270 q 350 257 350 240 l 350 82 q 350 51 325 26 q 301 1 268 1 l 143 1 q 126 1 114 13 q 102 25 102 42 q 102 59 114 71 q 126 83 143 83 z"},"Z":{"x_min":0,"x_max":604,"ha":604,"o":"m 140 649 l 514 649 l 514 596 l 213 82 l 473 82 q 490 82 502 70 q 514 58 514 41 q 514 24 502 12 q 490 0 473 0 l 100 0 l 100 54 l 401 566 l 140 566 q 124 566 112 578 q 100 591 100 608 q 100 625 112 637 q 124 649 140 649 z"},"x":{"x_min":0,"x_max":604,"ha":604,"o":"m 315 177 l 181 17 q 167 0 148 0 q 130 0 119 12 q 107 24 107 42 q 107 58 115 67 l 262 243 l 126 405 q 117 416 117 429 q 117 445 128 458 q 140 471 158 471 q 178 471 191 456 l 315 307 l 442 457 q 454 471 471 471 q 487 471 500 460 q 512 449 512 432 q 512 416 507 409 l 369 242 l 514 67 q 522 58 522 44 q 522 25 510 13 q 497 0 481 0 q 462 0 448 17 z"},")":{"x_min":0,"x_max":604,"ha":604,"o":"m 314 245 l 314 404 q 314 435 294 460 l 196 584 q 189 593 189 607 q 189 626 202 638 q 215 650 231 650 q 249 650 259 637 l 359 511 q 395 466 395 412 l 395 237 q 395 182 359 137 l 259 11 q 249 -1 231 -1 q 214 -1 202 10 q 189 22 189 42 q 189 56 196 65 l 294 189 q 314 213 314 245 z"},"&":{"x_min":0,"x_max":604,"ha":604,"o":"m 446 12 l 397 63 l 334 9 q 328 1 311 1 l 226 1 q 175 1 138 38 q 102 74 102 126 l 102 183 q 102 203 118 217 l 193 281 l 117 364 q 102 380 102 402 l 102 453 q 102 504 139 541 q 175 577 226 577 l 309 577 q 360 577 396 541 q 433 504 433 453 l 433 398 q 433 375 412 357 l 314 273 l 404 178 l 446 213 q 460 225 477 225 q 494 225 505 213 q 517 201 517 184 q 517 167 504 156 l 461 118 l 504 70 q 516 57 516 40 q 516 23 504 12 q 492 0 475 0 q 458 0 446 12 z m 351 414 l 351 454 q 351 471 339 484 q 327 496 310 496 l 226 496 q 209 496 197 484 q 185 471 185 454 l 185 413 l 258 335 z m 185 164 l 185 124 q 185 107 197 95 q 209 83 226 83 l 293 83 l 340 124 l 251 220 z"},"_":{"x_min":0,"x_max":604,"ha":604,"o":"m 609 -125 l -5 -125 l -5 -42 l 609 -42 z"},"v":{"x_min":0,"x_max":604,"ha":604,"o":"m 514 430 l 514 352 l 372 29 q 358 0 336 0 l 283 0 q 254 0 241 30 l 100 351 l 100 430 q 100 447 112 459 q 124 471 141 471 q 158 471 170 459 q 182 447 182 430 l 182 367 l 307 86 l 431 368 l 431 430 q 431 447 443 459 q 456 471 473 471 q 490 471 502 459 q 514 447 514 430 z"},"O":{"x_min":0,"x_max":604,"ha":604,"o":"m 405 589 l 495 405 q 514 367 514 323 q 514 280 495 242 l 405 60 q 376 0 307 0 q 274 0 248 17 q 222 34 209 60 l 118 242 q 100 278 100 323 q 100 369 118 405 l 209 589 q 240 649 307 649 q 375 649 405 589 z m 280 548 l 195 375 q 183 349 183 324 q 183 297 195 273 l 282 98 q 289 82 307 82 q 323 82 331 98 l 419 273 q 431 299 431 324 q 431 351 419 375 l 333 548 q 325 567 307 567 q 290 567 280 548 z"},"(":{"x_min":0,"x_max":604,"ha":604,"o":"m 307 403 l 307 245 q 307 213 326 189 l 424 64 q 431 56 431 41 q 431 21 418 10 q 406 -1 389 -1 q 371 -1 361 11 l 262 137 q 225 183 225 237 l 225 412 q 225 464 262 511 l 361 637 q 371 650 388 650 q 405 650 418 639 q 431 627 431 607 q 431 593 424 584 l 326 460 q 307 435 307 403 z"},"C":{"x_min":0,"x_max":604,"ha":604,"o":"m 326 82 l 474 82 q 491 82 504 70 q 516 58 516 41 q 516 24 504 12 q 491 0 474 0 l 321 0 q 292 0 260 19 q 229 37 217 60 l 122 243 q 103 283 103 324 q 103 370 121 404 l 217 585 q 230 610 259 630 q 288 649 315 649 l 477 649 q 494 649 506 637 q 518 625 518 608 q 518 591 506 578 q 494 566 477 566 l 321 566 q 301 566 289 543 l 198 373 q 188 353 188 326 q 188 297 199 275 l 286 108 q 298 82 326 82 z"},"W":{"x_min":0,"x_max":604,"ha":604,"o":"m 349 395 l 349 122 l 373 82 l 407 82 l 432 123 l 432 607 q 432 624 445 636 q 457 649 474 649 q 491 649 503 637 q 515 625 515 608 l 515 110 q 515 101 505 84 l 467 21 q 455 0 431 0 l 354 0 q 317 0 307 33 q 296 0 262 0 l 190 0 q 159 0 145 23 l 110 82 q 100 98 100 110 l 100 607 q 100 624 113 636 q 125 649 142 649 q 158 649 170 636 q 182 624 182 607 l 182 121 l 206 82 l 241 82 l 267 123 l 267 395 q 267 412 279 424 q 291 436 308 436 q 325 436 337 424 q 349 412 349 395 z"},"A":{"x_min":0,"x_max":604,"ha":604,"o":"m 104 57 l 270 618 q 279 649 311 649 q 341 649 349 623 l 512 53 q 514 47 514 41 q 514 24 502 12 q 491 0 476 0 q 443 0 435 30 l 401 141 l 214 141 l 178 22 q 177 14 166 7 q 155 0 143 0 q 125 0 113 12 q 101 24 101 42 q 101 49 104 57 z m 310 459 l 239 224 l 377 224 z"},"f":{"x_min":0,"x_max":604,"ha":604,"o":"m 288 389 l 288 41 q 288 24 276 12 q 264 0 247 0 q 229 0 217 12 q 205 24 205 41 l 205 389 l 163 389 q 146 389 134 401 q 122 414 122 430 q 122 446 133 459 q 144 471 163 471 l 206 471 l 206 503 q 206 566 249 607 q 292 649 357 649 l 453 649 q 470 649 482 637 q 494 625 494 607 q 494 590 482 578 q 470 566 453 566 l 357 566 q 328 566 308 548 q 289 531 289 503 l 289 471 l 371 471 q 388 472 400 459 q 412 447 412 430 q 412 414 400 401 q 388 389 371 389 z"},"Q":{"x_min":0,"x_max":604,"ha":604,"o":"m 166 469 l 341 620 q 376 649 413 649 q 454 649 484 619 q 514 589 514 555 l 514 304 q 514 233 453 181 l 398 134 l 419 82 l 474 82 q 491 82 503 70 q 515 58 515 41 q 515 24 503 12 q 491 0 474 0 l 362 0 l 332 77 l 276 31 q 239 0 201 0 q 158 0 129 30 q 100 59 100 101 l 100 330 q 100 373 113 404 q 126 435 166 469 z m 395 560 l 220 409 q 197 389 190 371 q 182 353 182 320 l 182 106 q 182 81 202 81 q 209 81 217 87 l 300 158 l 273 230 q 267 244 267 254 q 267 270 279 281 q 292 293 308 293 q 337 293 346 270 l 367 215 q 403 243 417 261 q 431 279 431 304 l 431 546 q 431 566 413 566 q 402 566 395 560 z"},"w":{"x_min":0,"x_max":604,"ha":604,"o":"m 349 289 l 349 191 l 403 97 l 432 191 l 440 430 q 441 447 453 459 q 465 471 481 471 q 499 471 511 459 q 523 447 522 430 l 514 175 l 470 30 q 460 0 432 0 l 388 0 q 365 0 352 23 l 307 100 l 262 24 q 247 0 226 0 l 183 0 q 168 0 157 8 q 146 17 143 28 l 100 178 l 90 430 q 90 446 103 459 q 115 471 132 471 q 148 471 160 460 q 172 448 172 430 l 182 190 l 208 98 l 266 194 l 266 289 q 266 306 278 318 q 290 330 308 330 q 324 330 336 318 q 349 306 349 289 z"},"-":{"x_min":0,"x_max":604,"ha":604,"o":"m 514 327 l 514 291 q 514 274 502 261 q 490 249 473 249 l 142 249 q 125 249 113 261 q 101 274 101 291 l 101 327 q 101 344 113 356 q 125 368 142 368 l 473 368 q 489 368 501 357 q 514 345 514 327 z"},"E":{"x_min":0,"x_max":604,"ha":604,"o":"m 473 566 l 183 566 l 183 366 l 308 366 q 325 366 337 354 q 349 342 349 325 q 349 308 337 295 q 325 283 308 283 l 183 283 l 183 82 l 474 82 q 491 82 503 70 q 515 58 515 41 q 515 24 503 12 q 490 0 473 0 l 101 0 l 101 649 l 473 649 q 490 649 503 636 q 515 624 515 607 q 515 590 503 578 q 490 566 473 566 z"},"s":{"x_min":0,"x_max":604,"ha":604,"o":"m 216 471 l 404 471 q 448 471 481 445 q 515 419 515 394 q 515 376 503 365 q 490 354 475 354 q 456 354 439 372 q 423 389 406 389 l 220 389 q 193 389 193 366 q 193 350 211 342 l 429 245 q 462 230 484 198 q 505 166 505 126 q 505 73 468 37 q 430 0 383 0 l 217 0 q 174 0 137 26 q 100 52 100 76 q 100 92 112 105 q 124 117 143 117 q 159 117 177 100 q 194 82 228 82 l 381 82 q 399 82 411 96 q 423 110 423 128 q 423 156 396 168 l 176 267 q 144 281 127 308 q 110 335 110 363 q 110 407 140 439 q 171 471 216 471 z"},">":{"x_min":0,"x_max":604,"ha":604,"o":"m 526 341 l 526 309 q 526 284 502 270 l 179 79 q 165 70 152 70 q 137 70 124 82 q 112 94 112 112 q 112 135 130 146 l 432 325 l 130 503 q 112 515 112 538 q 112 556 124 568 q 137 580 152 580 q 165 580 179 571 l 502 380 q 526 366 526 341 z"},"l":{"x_min":0,"x_max":604,"ha":604,"o":"m 432 0 l 184 0 q 167 0 155 12 q 143 25 143 42 q 143 59 155 71 q 167 83 184 83 l 266 83 l 266 567 l 183 567 q 166 567 154 579 q 142 591 142 608 q 142 625 154 637 q 166 649 183 649 l 308 649 q 325 649 337 637 q 349 625 349 608 l 349 83 l 432 83 q 449 83 461 71 q 473 59 473 42 q 473 25 461 12 q 449 0 432 0 z"},"8":{"x_min":0,"x_max":604,"ha":604,"o":"m 98 84 l 98 284 q 98 318 123 342 q 147 366 181 366 l 181 608 q 181 625 193 637 q 205 649 222 649 l 389 649 q 406 649 418 637 q 430 625 430 608 l 430 366 q 463 366 488 343 q 512 319 512 284 l 512 83 q 512 49 488 25 q 463 1 430 1 l 181 1 q 146 1 122 26 q 98 52 98 84 z m 263 567 l 263 366 l 348 366 l 348 567 z m 181 284 l 181 83 l 430 83 l 430 284 z"},"\\":{"x_min":0,"x_max":604,"ha":604,"o":"m 455 12 l 122 578 q 112 597 112 611 q 112 628 125 639 q 139 649 155 649 q 173 649 181 636 l 513 71 q 524 53 524 39 q 524 21 510 10 q 497 0 480 0 q 463 0 455 12 z"},"e":{"x_min":0,"x_max":604,"ha":604,"o":"m 514 317 l 514 218 q 514 201 502 189 q 490 177 473 177 l 183 177 l 183 153 q 183 132 201 117 l 225 97 q 245 82 262 82 l 473 82 q 490 82 502 70 q 514 58 514 41 q 514 24 502 12 q 489 0 473 0 l 257 0 q 235 0 212 9 q 188 18 177 28 l 140 60 q 123 74 112 98 q 100 123 100 143 l 100 331 q 100 347 113 375 q 125 402 144 417 l 178 444 q 212 471 253 471 l 368 471 q 412 471 450 435 l 481 406 q 514 376 514 317 z m 184 323 l 184 260 l 433 260 l 433 317 q 433 340 419 352 l 395 373 q 376 388 362 388 l 259 388 q 240 388 224 375 l 200 355 q 184 343 184 323 z"},"b":{"x_min":0,"x_max":604,"ha":604,"o":"m 185 608 l 185 415 l 221 444 q 255 472 292 472 l 367 472 q 409 472 441 444 l 480 410 q 496 396 507 370 q 517 343 517 318 l 517 152 q 517 129 507 104 q 498 80 485 68 l 449 34 q 436 21 410 10 q 385 0 367 0 l 297 0 q 246 0 185 57 l 185 41 q 185 24 173 12 q 161 0 144 0 q 127 0 115 12 q 103 24 103 41 l 103 608 q 103 625 115 637 q 127 649 144 649 q 161 649 173 637 q 185 625 185 608 z m 361 389 l 304 389 q 284 389 273 380 l 199 317 q 185 304 185 279 l 185 186 q 185 166 201 152 l 267 96 q 281 83 297 83 l 364 83 q 378 83 388 92 l 421 121 q 434 131 434 149 l 434 322 q 434 342 421 353 l 391 378 q 377 389 361 389 z"},"%":{"x_min":0,"x_max":604,"ha":604,"o":"m 140 649 l 223 649 q 240 649 253 636 q 265 624 265 607 l 265 536 q 265 519 253 507 q 241 494 224 494 l 139 494 q 123 494 111 506 q 99 519 99 535 l 99 607 q 99 624 111 636 q 124 649 140 649 z m 502 506 l 170 83 q 160 71 143 71 q 127 71 114 83 q 100 95 100 111 q 100 127 111 141 l 443 565 q 453 577 471 577 q 488 577 501 566 q 513 555 513 537 q 513 521 502 506 z m 388 154 l 471 154 q 488 154 500 142 q 512 130 512 113 l 512 41 q 512 24 500 12 q 488 0 471 0 l 387 0 q 370 0 359 12 q 347 23 347 41 l 347 113 q 347 130 359 142 q 371 154 388 154 z"},"m":{"x_min":0,"x_max":604,"ha":604,"o":"m 91 41 l 91 430 q 91 447 103 459 q 115 471 132 471 q 164 471 172 440 q 206 472 248 472 q 297 472 329 430 q 368 472 415 472 q 453 472 481 445 q 509 418 511 376 l 523 41 q 523 24 511 12 q 499 0 482 0 q 465 0 453 12 q 440 24 440 41 l 430 363 q 429 389 414 389 q 406 389 397 382 l 348 341 l 348 41 q 348 24 336 13 q 324 1 307 1 q 291 1 278 13 q 266 25 266 42 l 266 368 q 266 389 248 389 q 239 389 232 383 l 173 333 l 173 41 q 173 24 161 12 q 149 0 133 0 q 116 0 103 12 q 91 24 91 41 z"},"#":{"x_min":0,"x_max":604,"ha":604,"o":"m 266 249 l 266 148 q 266 131 254 118 q 242 106 225 106 q 208 106 196 118 q 184 131 184 148 l 184 249 l 142 249 q 125 249 113 261 q 101 273 101 290 q 101 307 113 319 q 125 331 142 331 l 183 331 l 183 425 l 142 425 q 125 425 113 437 q 101 449 101 466 q 101 483 113 495 q 125 507 142 507 l 184 507 l 184 608 q 184 625 196 637 q 208 649 225 649 q 242 649 254 637 q 266 625 266 608 l 266 507 l 348 507 l 348 608 q 348 625 360 637 q 373 649 389 649 q 406 649 419 637 q 431 625 431 608 l 431 507 l 473 507 q 490 507 502 495 q 514 483 514 466 q 514 448 501 436 q 488 424 473 424 l 432 424 l 432 331 l 473 331 q 489 331 502 319 q 514 307 514 290 q 514 274 503 261 q 491 249 473 249 l 431 249 l 431 148 q 431 131 419 118 q 406 106 389 106 q 373 106 360 118 q 348 131 348 148 l 348 249 z m 266 424 l 266 331 l 348 331 l 348 424 z"},",":{"x_min":0,"x_max":604,"ha":604,"o":"m 431 255 l 431 42 q 431 25 419 13 q 407 1 390 1 q 373 1 361 13 q 349 25 349 42 l 349 214 l 224 214 q 207 214 195 226 q 183 239 183 256 q 183 272 195 285 q 208 297 224 297 l 390 297 q 407 297 419 285 q 431 272 431 255 z"},"n":{"x_min":0,"x_max":604,"ha":604,"o":"m 295 376 l 183 303 l 183 41 q 183 24 171 12 q 159 0 142 0 q 125 0 113 12 q 101 24 101 41 l 101 430 q 101 447 113 460 q 125 472 142 472 q 159 472 171 460 q 183 447 183 430 l 183 403 l 258 448 q 295 472 343 472 l 381 472 q 430 472 465 438 q 501 403 503 352 l 514 41 q 515 24 502 12 q 490 0 473 0 q 457 0 445 11 q 433 22 432 41 l 420 347 q 418 390 375 390 l 335 390 q 316 390 295 376 z"},"h":{"x_min":0,"x_max":604,"ha":604,"o":"m 100 41 l 100 608 q 100 625 112 636 q 124 648 141 648 q 158 648 170 636 q 182 624 182 607 l 182 400 l 248 443 q 293 471 328 471 l 379 471 q 429 471 465 435 q 501 399 503 348 l 513 41 q 514 24 501 12 q 489 0 472 0 q 455 0 443 12 q 432 25 431 41 l 421 349 q 420 366 408 378 q 396 390 379 390 l 333 390 q 317 390 299 378 l 182 302 l 182 41 q 182 24 170 12 q 158 0 141 0 q 124 0 112 12 q 100 24 100 41 z"},"z":{"x_min":0,"x_max":604,"ha":604,"o":"m 515 430 l 515 397 q 515 377 501 364 l 210 82 l 473 82 q 490 82 502 70 q 514 58 514 41 q 514 24 502 12 q 490 0 473 0 l 143 0 q 125 0 113 12 q 101 24 101 41 l 101 76 q 101 94 123 115 l 408 389 l 162 389 q 145 389 133 401 q 121 414 121 431 q 121 447 133 460 q 146 472 162 472 l 474 472 q 491 472 503 460 q 515 447 515 430 z"},"B":{"x_min":0,"x_max":604,"ha":604,"o":"m 514 201 l 514 165 q 514 97 466 49 q 418 0 350 0 l 99 0 l 99 649 l 350 649 q 418 649 466 601 q 514 552 514 484 l 514 449 q 514 376 458 325 q 514 273 514 201 z m 430 450 l 430 484 q 430 518 406 542 q 382 567 348 567 l 181 567 l 181 368 l 348 368 q 381 368 406 392 q 430 417 430 450 z m 430 165 l 430 199 q 430 233 406 258 q 382 282 348 282 l 182 282 l 182 83 l 348 83 q 381 83 406 107 q 430 131 430 165 z"},"K":{"x_min":0,"x_max":604,"ha":604,"o":"m 100 41 l 100 607 q 100 625 112 637 q 124 649 141 649 q 158 649 170 637 q 182 625 182 608 l 182 414 l 445 638 q 458 649 476 649 q 493 649 504 637 q 516 624 516 607 q 516 590 503 579 l 205 326 l 503 69 q 515 59 515 42 q 515 26 503 13 q 491 0 474 0 q 457 0 444 11 l 182 237 l 182 41 q 182 24 170 12 q 158 0 141 0 q 125 0 112 12 q 100 24 100 41 z"},"R":{"x_min":0,"x_max":604,"ha":604,"o":"m 102 41 l 102 649 l 392 649 q 442 649 479 612 q 515 576 515 525 l 515 478 q 515 427 479 390 q 443 354 392 354 l 340 354 l 508 66 q 516 53 516 41 q 516 24 503 12 q 490 0 474 0 q 450 0 437 22 l 244 354 l 185 354 l 185 41 q 185 24 173 12 q 160 0 143 0 q 126 0 114 12 q 102 24 102 41 z m 184 436 l 392 436 q 409 436 421 448 q 433 460 433 477 l 433 525 q 433 542 421 554 q 409 566 392 566 l 184 566 z"},"T":{"x_min":0,"x_max":604,"ha":604,"o":"m 100 537 l 100 648 l 514 648 l 514 536 q 514 519 502 507 q 490 495 473 495 q 456 495 444 507 q 431 520 431 536 l 431 566 l 348 566 l 348 41 q 348 24 336 12 q 324 0 307 0 q 290 0 277 12 q 265 24 265 41 l 265 566 l 182 566 l 182 537 q 182 520 170 508 q 158 496 141 496 q 124 496 112 508 q 100 520 100 537 z"},"P":{"x_min":0,"x_max":604,"ha":604,"o":"m 101 41 l 101 649 l 392 649 q 442 649 479 612 q 515 576 515 525 l 515 371 q 515 320 479 284 q 443 248 392 248 l 184 248 l 184 41 q 184 24 172 12 q 160 0 143 0 q 125 0 113 12 q 101 24 101 41 z m 184 330 l 392 330 q 409 330 421 342 q 433 354 433 371 l 433 525 q 433 542 421 554 q 409 566 392 566 l 184 566 z"},"|":{"x_min":0,"x_max":604,"ha":604,"o":"m 344 42 q 344 25 332 12 q 319 0 302 0 q 285 0 273 12 q 261 25 261 42 l 261 609 q 261 626 273 637 q 286 649 303 649 q 320 649 332 637 q 344 626 344 609 z"},"t":{"x_min":0,"x_max":604,"ha":604,"o":"m 389 0 l 307 0 q 256 0 220 36 q 183 72 183 123 l 183 389 l 141 389 q 124 389 112 401 q 100 413 100 430 q 100 447 112 459 q 124 471 141 471 l 184 471 l 184 572 q 184 589 196 601 q 208 613 225 613 q 241 613 254 601 q 266 588 266 572 l 266 471 l 431 471 q 448 471 460 459 q 472 447 472 430 q 472 413 460 401 q 448 389 431 389 l 265 389 l 265 123 q 265 106 278 94 q 290 82 307 82 l 387 82 q 420 82 431 117 q 441 153 472 153 q 490 153 502 141 q 513 129 513 111 q 513 74 478 37 q 443 0 389 0 z"},"M":{"x_min":0,"x_max":604,"ha":604,"o":"m 266 394 l 266 415 l 181 536 l 181 41 q 181 24 169 12 q 157 0 140 0 q 123 0 111 12 q 99 24 99 41 l 99 649 l 205 649 l 306 502 l 410 649 l 514 649 l 514 41 q 514 24 502 12 q 489 0 472 0 q 456 0 443 12 q 431 24 431 41 l 431 534 l 348 417 l 348 394 q 348 377 336 365 q 324 353 307 353 q 290 353 278 365 q 266 377 266 394 z"},"g":{"x_min":0,"x_max":604,"ha":604,"o":"m 359 -176 l 181 -176 q 164 -176 152 -164 q 140 -152 140 -135 q 140 -118 152 -106 q 164 -94 181 -94 l 359 -94 q 375 -94 389 -82 l 417 -58 q 431 -47 431 -30 l 431 95 q 374 37 319 37 l 256 37 q 207 37 168 71 l 137 98 q 122 111 111 135 q 100 160 100 183 l 100 319 q 100 348 111 374 q 122 399 137 412 l 171 441 q 207 472 256 472 l 315 472 q 363 472 403 438 l 431 414 l 430 430 q 430 447 442 459 q 455 471 471 471 q 488 471 501 459 q 513 447 513 430 l 513 -30 q 513 -82 471 -119 l 438 -148 q 425 -159 402 -167 q 379 -176 359 -176 z m 312 390 l 257 390 q 239 390 222 376 l 197 355 q 182 343 182 322 l 182 185 q 182 168 198 154 l 225 130 q 238 119 252 119 l 319 119 q 333 119 351 134 l 416 189 q 431 202 431 221 l 431 283 q 431 306 414 320 l 347 377 q 333 390 312 390 z"},"j":{"x_min":0,"x_max":604,"ha":604,"o":"m 390 683 l 434 683 q 450 683 463 671 q 475 658 475 642 l 475 606 q 475 589 463 577 q 451 565 434 565 l 390 565 q 373 565 361 577 q 349 589 349 606 l 349 642 q 350 659 362 671 q 374 683 390 683 z m 351 -176 l 264 -176 q 214 -176 177 -140 q 140 -104 140 -63 q 140 -48 152 -36 q 165 -24 182 -24 q 201 -24 208 -32 q 216 -41 222 -58 q 229 -76 238 -85 q 247 -94 268 -94 l 350 -94 q 367 -94 379 -82 q 391 -70 391 -53 l 391 389 l 266 389 q 249 389 237 401 q 225 413 225 430 q 225 447 237 459 q 249 471 266 471 l 433 471 q 450 471 462 459 q 474 446 474 429 l 474 -53 q 474 -104 438 -140 q 402 -176 351 -176 z"},"i":{"x_min":0,"x_max":604,"ha":604,"o":"m 265 685 l 308 685 q 325 685 337 673 q 349 661 349 644 l 349 609 q 349 592 337 579 q 325 567 308 567 l 264 567 q 247 567 235 580 q 223 592 223 608 l 224 644 q 224 661 236 673 q 248 685 265 685 z m 432 1 l 182 1 q 165 1 153 13 q 141 25 141 42 q 141 59 153 71 q 165 83 182 83 l 266 83 l 266 389 l 183 389 q 166 389 154 401 q 142 414 142 430 q 142 447 154 460 q 166 472 183 472 l 308 472 q 325 472 337 460 q 349 447 349 430 l 349 83 l 431 83 q 448 83 461 71 q 473 59 473 42 q 473 25 461 13 q 449 1 432 1 z"},"y":{"x_min":0,"x_max":604,"ha":604,"o":"m 515 351 l 294 -149 q 283 -176 255 -176 l 141 -176 q 124 -176 112 -164 q 100 -152 100 -135 q 100 -118 112 -106 q 124 -94 141 -94 l 229 -94 l 285 36 l 265 36 q 237 36 225 65 l 102 351 l 102 430 q 102 447 114 459 q 125 471 142 471 q 159 471 172 459 q 184 447 184 430 l 184 369 l 292 119 l 321 119 l 432 368 l 432 431 q 432 447 445 460 q 457 472 474 472 q 491 472 503 460 q 515 448 515 431 z"},"@":{"x_min":0,"x_max":604,"ha":604,"o":"m 432 124 l 432 508 q 432 530 414 549 q 396 567 373 567 l 247 567 q 219 567 207 557 q 194 546 180 521 q 167 496 143 496 q 124 496 113 508 q 101 520 101 535 q 101 566 141 608 q 181 649 235 649 l 375 649 q 429 649 472 606 q 514 563 514 505 l 514 119 q 514 73 478 37 q 442 1 393 1 q 342 1 309 33 q 277 1 226 1 q 174 1 138 38 q 102 74 102 119 l 102 277 q 102 328 138 364 q 175 401 226 401 l 306 401 q 350 401 350 357 l 350 124 q 350 107 362 95 q 374 83 391 83 q 408 83 420 95 q 432 107 432 124 z m 268 124 l 268 319 l 231 319 q 185 319 185 273 l 185 124 q 185 107 197 95 q 209 83 226 83 q 243 83 256 95 q 268 107 268 124 z"},".":{"x_min":0,"x_max":604,"ha":604,"o":"m 265 259 l 348 259 q 365 259 377 247 q 389 235 389 218 l 389 148 q 389 131 377 118 q 365 106 348 106 l 264 106 q 247 106 235 118 q 223 130 223 147 l 223 218 q 223 235 235 247 q 248 259 265 259 z"},"p":{"x_min":0,"x_max":604,"ha":604,"o":"m 184 47 l 184 -135 q 184 -152 172 -165 q 160 -177 143 -177 q 126 -177 114 -165 q 101 -152 101 -135 l 101 450 q 101 467 113 479 q 125 491 143 491 q 160 491 172 479 q 184 467 184 450 l 184 424 q 244 490 302 490 l 321 490 q 364 490 401 458 l 469 399 q 514 360 514 300 l 514 172 q 514 111 466 70 l 399 12 q 366 -18 315 -18 l 297 -18 q 249 -18 216 15 z m 300 65 l 321 65 q 336 65 353 80 l 417 136 q 433 149 433 171 l 433 303 q 433 323 415 338 l 346 397 q 334 407 321 407 l 297 407 q 283 407 261 385 l 200 324 q 184 308 184 288 l 184 183 q 184 164 202 146 l 261 87 q 283 65 300 65 z"},"X":{"x_min":0,"x_max":604,"ha":604,"o":"m 314 243 l 184 20 q 173 0 149 0 q 132 0 119 13 q 107 26 107 41 q 107 53 114 65 l 267 324 l 117 582 q 108 597 108 610 q 108 625 121 637 q 133 649 149 649 q 173 649 184 630 l 316 407 l 446 629 q 458 649 481 649 q 498 649 511 637 q 523 625 523 609 q 523 598 517 587 l 363 325 l 516 62 q 522 52 522 41 q 522 23 510 12 q 498 0 481 0 q 457 0 445 20 z"},"*":{"x_min":0,"x_max":604,"ha":604,"o":"m 277 415 l 277 536 q 277 553 290 565 q 302 577 319 577 q 336 577 348 565 q 360 553 360 536 l 360 413 l 456 495 q 470 506 487 506 q 505 506 516 494 q 527 481 527 465 q 527 448 515 437 l 383 324 l 514 212 q 526 201 526 184 q 526 167 515 155 q 503 143 486 143 q 470 143 456 154 l 360 236 l 360 113 q 360 96 348 84 q 336 72 319 72 q 302 72 290 84 q 277 96 277 113 l 277 234 l 183 153 q 170 142 154 142 q 137 142 125 155 q 113 167 113 184 q 113 202 125 212 l 257 324 l 126 437 q 113 448 113 466 q 113 483 125 495 q 138 508 154 508 q 171 508 184 496 z"},"Y":{"x_min":0,"x_max":604,"ha":604,"o":"m 350 311 l 350 41 q 350 24 338 12 q 326 0 309 0 q 292 0 279 12 q 267 24 267 41 l 267 311 l 102 520 l 102 607 q 102 625 114 637 q 126 649 143 649 q 160 649 173 636 q 185 624 185 607 l 185 551 l 308 392 l 433 550 l 433 607 q 433 624 445 636 q 458 649 474 649 q 490 649 503 637 q 515 626 515 607 l 515 521 z"},"c":{"x_min":0,"x_max":604,"ha":604,"o":"m 474 0 l 299 0 q 252 0 220 28 l 140 97 q 102 129 102 183 l 102 290 q 100 342 145 381 l 217 443 q 251 471 291 471 l 475 471 q 492 471 504 459 q 516 447 516 430 q 516 413 504 401 q 492 389 475 389 l 299 389 q 282 389 267 376 l 201 320 q 185 306 185 283 l 185 183 q 185 167 198 156 l 270 94 q 284 82 306 82 l 474 82 q 491 82 503 70 q 515 58 515 41 q 515 24 503 12 q 491 0 474 0 z"},"!":{"x_min":0,"x_max":604,"ha":604,"o":"m 368 607 l 348 289 q 347 271 335 260 q 323 248 307 248 q 289 248 278 260 q 266 272 265 289 l 245 608 q 244 625 257 637 q 269 649 286 649 l 327 649 q 344 649 357 636 q 369 623 368 607 z m 286 119 l 325 119 q 342 119 355 107 q 367 95 367 78 l 367 42 q 367 25 355 13 q 343 1 326 1 l 285 1 q 268 1 256 13 q 244 25 244 42 l 244 77 q 245 94 257 107 q 269 119 286 119 z"},"/":{"x_min":0,"x_max":604,"ha":604,"o":"m 513 578 l 180 12 q 172 0 155 0 q 139 0 125 10 q 111 21 111 39 q 111 54 121 71 l 454 636 q 462 649 479 649 q 495 649 509 639 q 523 628 523 611 q 523 595 513 578 z"},"[":{"x_min":0,"x_max":604,"ha":604,"o":"m 308 83 l 473 83 q 490 83 502 71 q 514 59 514 42 q 514 25 502 13 q 490 1 473 1 l 142 1 q 125 1 113 13 q 101 25 101 42 l 101 608 q 101 625 113 638 q 125 650 142 650 l 473 650 q 490 650 502 638 q 514 625 514 609 q 514 592 502 579 q 490 567 473 567 l 308 567 z m 226 83 l 226 567 l 183 567 l 183 83 z"},"6":{"x_min":0,"x_max":604,"ha":604,"o":"m 143 649 l 184 649 q 201 649 213 637 q 225 625 225 608 q 225 591 213 579 q 201 567 184 567 l 184 296 l 473 296 q 490 296 502 283 q 514 271 514 254 l 514 42 q 514 25 502 13 q 489 1 472 1 l 143 1 q 126 1 114 13 q 101 25 101 42 l 101 608 q 101 625 113 637 q 125 649 143 649 z m 183 213 l 183 83 l 431 83 l 431 213 z"},"r":{"x_min":0,"x_max":604,"ha":604,"o":"m 101 41 l 101 430 q 101 447 113 460 q 125 472 142 472 q 159 472 171 460 q 183 448 183 430 l 183 379 l 250 436 q 292 471 331 471 l 391 471 q 442 471 478 435 q 514 399 514 348 l 514 326 q 514 309 502 296 q 490 284 473 284 q 456 284 444 296 q 432 308 432 325 l 432 348 q 432 365 420 377 q 408 389 391 389 l 338 389 q 321 389 300 371 l 183 270 l 183 41 q 183 24 171 12 q 159 0 142 0 q 125 0 113 12 q 101 24 101 41 z"},"2":{"x_min":0,"x_max":604,"ha":604,"o":"m 473 1 l 100 1 l 100 284 q 100 318 124 343 q 148 367 182 367 l 431 367 l 431 567 l 138 567 q 121 567 109 579 q 97 591 97 608 q 97 625 109 637 q 121 649 138 649 l 431 649 q 465 649 490 625 q 514 601 514 567 l 514 367 q 514 333 490 308 q 465 284 431 284 l 182 284 l 182 83 l 473 83 q 490 83 502 71 q 514 59 514 42 q 514 25 502 13 q 490 1 473 1 z"},"{":{"x_min":0,"x_max":604,"ha":604,"o":"m 349 567 l 349 407 q 349 356 316 325 q 349 295 349 243 l 349 83 l 474 83 q 491 83 503 71 q 515 59 515 42 q 515 25 503 13 q 491 1 474 1 l 349 1 q 315 1 291 26 q 267 51 267 83 l 267 240 q 267 257 254 271 q 242 284 225 284 l 143 284 q 126 284 114 296 q 102 308 102 325 q 102 342 114 354 q 126 366 143 366 l 225 366 q 242 366 254 379 q 267 393 267 410 l 267 568 q 267 600 292 624 q 316 649 349 649 l 474 649 q 491 649 503 637 q 515 625 515 608 q 515 591 503 579 q 491 567 474 567 z"},"9":{"x_min":0,"x_max":604,"ha":604,"o":"m 473 2 l 432 2 q 416 2 403 14 q 391 26 391 43 q 391 60 403 72 q 415 84 432 84 l 432 355 l 143 355 q 126 355 114 367 q 102 379 102 396 l 102 609 q 102 625 114 638 q 126 650 143 650 l 473 650 q 490 650 502 638 q 514 625 514 609 l 514 43 q 514 26 502 14 q 490 2 473 2 z m 433 438 l 433 567 l 184 567 l 184 438 z"}," ":{"x_min":0,"x_max":604,"ha":604,"o":""},"I":{"x_min":0,"x_max":604,"ha":604,"o":"m 141 649 l 473 649 q 489 649 502 637 q 514 625 514 608 q 514 591 502 578 q 490 566 473 566 l 349 566 l 349 82 l 473 82 q 490 82 502 70 q 514 58 514 41 q 514 24 502 12 q 490 0 473 0 l 141 0 q 124 0 112 12 q 100 24 100 41 q 100 58 112 70 q 124 82 141 82 l 267 82 l 267 566 l 141 566 q 124 566 112 578 q 100 590 100 607 q 100 625 112 637 q 124 649 141 649 z"},"H":{"x_min":0,"x_max":604,"ha":604,"o":"m 99 41 l 99 608 q 99 625 111 637 q 123 649 140 649 q 157 649 169 637 q 181 625 181 608 l 181 366 l 431 366 l 431 608 q 431 625 443 637 q 455 649 472 649 q 489 649 501 637 q 513 625 513 607 l 513 41 q 513 24 501 12 q 488 0 472 0 q 455 0 443 12 q 431 24 431 41 l 431 284 l 182 284 l 182 41 q 182 24 170 12 q 157 0 140 0 q 124 0 111 12 q 99 24 99 41 z"},"4":{"x_min":0,"x_max":604,"ha":604,"o":"m 369 42 l 369 213 l 122 213 l 122 608 q 122 625 135 637 q 147 650 164 650 q 181 650 193 637 q 205 625 205 608 l 205 296 l 369 296 l 369 536 q 369 553 381 566 q 393 578 410 578 q 427 578 439 566 q 451 553 451 536 l 451 296 q 468 296 480 284 q 492 272 492 255 q 492 238 480 226 q 468 214 451 214 l 451 42 q 451 25 439 13 q 427 1 410 1 q 393 1 381 13 q 369 25 369 42 z"},"~":{"x_min":0,"x_max":604,"ha":604,"o":"m 518 297 l 444 252 q 430 245 422 245 l 396 245 q 392 245 383 248 l 258 290 l 246 290 l 184 252 q 173 245 161 245 q 145 245 132 258 q 120 271 120 288 q 120 310 140 322 l 214 367 q 223 373 236 373 l 262 373 q 269 373 275 371 l 403 328 l 410 328 l 474 367 q 485 374 497 374 q 514 374 526 361 q 538 348 538 331 q 538 309 518 297 z"},"D":{"x_min":0,"x_max":604,"ha":604,"o":"m 141 649 l 303 649 q 335 648 365 628 q 395 608 409 580 l 490 416 q 513 372 513 323 q 513 278 489 231 l 407 69 q 392 38 362 19 q 333 0 297 0 l 140 0 q 123 0 111 12 q 99 24 99 41 q 99 58 111 71 q 123 83 140 83 l 183 83 l 183 566 l 141 566 q 124 566 112 578 q 100 591 100 608 q 100 625 112 637 q 124 649 141 649 z m 265 566 l 265 82 l 294 82 q 321 82 335 109 l 416 270 q 431 302 431 323 q 431 350 419 374 l 335 541 q 322 566 292 566 z"},"^":{"x_min":0,"x_max":604,"ha":604,"o":"m 117 174 l 279 484 q 292 508 316 508 q 340 508 353 484 l 515 174 q 523 159 523 146 q 523 131 511 119 q 499 107 482 107 q 460 107 448 125 l 316 322 l 185 125 q 172 107 149 107 q 133 107 121 119 q 109 131 109 146 q 109 159 117 174 z"},"0":{"x_min":0,"x_max":604,"ha":604,"o":"m 99 80 l 99 571 q 99 603 123 626 q 146 650 178 650 l 434 650 q 466 650 489 626 q 512 603 512 571 l 512 80 q 512 47 489 24 q 466 1 433 1 l 178 1 q 145 1 122 24 q 99 47 99 80 z m 431 83 l 431 567 l 181 567 l 181 83 z"},"F":{"x_min":0,"x_max":604,"ha":604,"o":"m 101 41 l 101 649 l 473 649 q 489 649 502 637 q 514 625 514 608 q 514 591 502 578 q 490 566 473 566 l 183 566 l 183 437 l 391 437 q 408 437 420 425 q 432 413 432 396 q 432 379 420 367 q 408 355 391 355 l 183 355 l 183 41 q 183 24 171 12 q 159 0 142 0 q 125 0 113 12 q 101 24 101 41 z"},"`":{"x_min":0,"x_max":604,"ha":604,"o":"m 398 576 q 421 564 421 539 q 421 523 410 510 q 398 497 381 497 q 372 497 363 501 l 214 570 q 191 582 191 607 q 191 623 202 636 q 213 649 231 649 q 240 649 249 645 z"},"k":{"x_min":0,"x_max":604,"ha":604,"o":"m 101 41 l 101 607 q 101 625 113 637 q 125 649 142 649 q 159 649 171 637 q 183 625 183 607 l 183 272 l 404 460 q 418 472 435 472 q 452 472 464 459 q 476 447 476 430 q 476 412 463 401 l 291 255 l 503 69 q 516 59 516 42 q 516 26 504 13 q 492 0 475 0 q 458 0 445 11 l 226 201 l 183 165 l 183 41 q 183 24 171 12 q 159 0 142 0 q 125 0 113 12 q 101 24 101 41 z"},"u":{"x_min":0,"x_max":604,"ha":604,"o":"m 296 83 l 434 171 l 434 430 q 434 447 446 460 q 458 472 475 472 q 492 472 504 460 q 516 447 516 430 l 516 41 q 516 24 504 12 q 492 0 475 0 q 458 0 446 12 q 434 24 434 41 l 434 73 l 363 27 q 321 0 278 0 l 240 0 q 189 0 153 35 q 117 70 115 121 l 103 430 q 102 446 115 459 q 127 471 144 471 q 161 471 173 459 q 185 447 185 430 l 196 127 q 197 83 246 83 z"},"]":{"x_min":0,"x_max":604,"ha":604,"o":"m 306 567 l 142 567 q 125 567 112 579 q 100 591 100 608 q 100 625 113 637 q 125 649 142 649 l 472 649 q 489 649 502 637 q 514 625 514 608 l 514 42 q 514 25 502 13 q 490 1 473 1 l 142 1 q 125 1 113 13 q 101 26 101 43 q 101 60 113 71 q 125 83 142 83 l 306 83 z m 389 567 l 389 83 l 432 83 l 432 567 z"},"U":{"x_min":0,"x_max":604,"ha":604,"o":"m 100 123 l 100 607 q 100 624 112 636 q 125 649 141 649 q 158 649 170 637 q 182 625 182 608 l 182 123 q 182 107 194 95 q 207 83 223 83 l 391 83 q 408 83 420 95 q 432 106 432 123 l 432 607 q 432 625 444 637 q 456 649 473 649 q 490 649 502 637 q 514 625 514 607 l 514 124 q 514 73 478 37 q 441 0 391 0 l 223 0 q 172 0 136 36 q 100 72 100 123 z"},"o":{"x_min":0,"x_max":604,"ha":604,"o":"m 514 323 l 514 150 q 514 95 462 48 q 410 1 355 1 l 259 1 q 203 1 151 49 q 100 96 100 150 l 100 323 q 100 377 150 425 q 200 472 259 472 l 355 472 q 410 473 462 426 q 514 379 514 323 z m 183 320 l 183 154 q 183 131 199 118 l 230 92 q 240 83 259 83 l 354 83 q 375 83 392 98 l 417 120 q 432 132 432 153 l 432 319 q 432 343 417 355 l 388 378 q 374 390 354 390 l 269 390 q 241 390 226 377 l 198 353 q 183 340 183 320 z"},"N":{"x_min":0,"x_max":604,"ha":604,"o":"m 514 607 l 514 0 l 404 0 l 183 504 l 183 41 q 183 24 171 12 q 159 0 142 0 q 125 0 113 12 q 101 24 101 41 l 101 649 l 210 649 l 431 146 l 431 607 q 431 624 444 636 q 456 649 473 649 q 490 649 502 637 q 514 625 514 607 z"},"+":{"x_min":0,"x_max":604,"ha":604,"o":"m 266 367 l 266 493 q 266 510 278 521 q 291 533 308 533 q 325 533 336 521 q 348 510 348 493 l 348 367 l 474 367 q 491 367 504 355 q 516 343 516 326 q 516 309 504 297 q 491 285 474 285 l 349 285 l 349 159 q 349 142 337 129 q 324 117 307 117 q 290 117 278 129 q 266 142 266 159 l 266 285 l 140 285 q 124 285 111 297 q 99 309 99 326 q 99 343 111 355 q 124 367 140 367 z"},"G":{"x_min":0,"x_max":604,"ha":604,"o":"m 339 649 l 475 649 q 492 649 504 637 q 516 625 516 608 q 516 590 503 578 q 490 566 475 566 l 345 566 q 326 566 312 548 l 197 400 q 182 382 182 351 l 182 124 q 182 106 194 94 q 206 82 223 82 l 390 82 q 407 82 419 94 q 431 106 431 123 l 431 212 l 346 212 q 329 212 317 224 q 305 236 305 253 q 305 270 317 282 q 329 294 346 294 l 513 294 l 513 123 q 513 72 477 36 q 441 0 390 0 l 223 0 q 172 0 135 36 q 99 72 99 123 l 99 350 q 99 411 132 453 l 253 607 q 266 625 290 637 q 313 649 339 649 z"},"q":{"x_min":0,"x_max":604,"ha":604,"o":"m 432 -134 l 432 59 l 401 33 q 360 0 315 0 l 260 0 q 211 0 178 28 l 140 60 q 123 74 112 99 q 101 125 101 148 l 101 319 q 101 378 137 409 l 167 435 q 208 472 259 472 l 319 472 q 371 472 432 414 l 432 431 q 432 448 444 460 q 456 472 473 472 q 490 472 502 460 q 514 448 514 431 l 514 -134 q 514 -151 502 -164 q 490 -176 473 -176 q 456 -176 444 -164 q 432 -151 432 -134 z m 256 83 l 313 83 q 334 83 345 92 l 419 155 q 432 167 432 193 l 432 287 q 432 304 415 319 l 353 374 q 338 389 320 389 l 253 389 q 239 389 229 380 l 198 353 q 183 340 183 323 l 183 150 q 183 133 200 118 l 227 94 q 241 83 256 83 z"},"d":{"x_min":0,"x_max":604,"ha":604,"o":"m 431 414 l 431 608 q 431 625 443 637 q 455 649 471 649 q 488 649 501 637 q 513 625 513 608 l 513 41 q 513 24 501 12 q 489 0 472 0 q 455 0 443 12 q 431 24 431 41 l 431 59 q 371 0 319 0 l 249 0 q 207 0 165 36 l 131 65 q 119 76 109 103 q 98 129 98 152 l 98 319 q 98 347 110 373 q 122 399 137 412 l 171 441 q 207 472 256 472 l 315 472 q 363 472 403 438 z m 312 389 l 255 389 q 237 389 222 376 l 196 353 q 182 341 182 322 l 182 148 q 182 131 198 117 l 225 94 q 238 83 252 83 l 319 83 q 332 83 350 98 l 415 152 q 431 166 431 187 l 431 276 q 431 306 414 320 l 347 377 q 334 389 312 389 z"},"1":{"x_min":0,"x_max":604,"ha":604,"o":"m 139 83 l 265 83 l 265 567 l 141 567 q 124 567 112 579 q 100 591 100 608 q 100 625 112 637 q 124 649 141 649 l 347 649 l 347 83 l 429 83 l 429 254 q 429 271 441 283 q 453 295 470 295 q 487 295 499 283 q 511 271 511 254 l 511 42 q 511 25 499 13 q 487 1 470 1 l 139 1 q 122 1 110 13 q 98 26 98 43 q 98 60 110 71 q 122 83 139 83 z"},"5":{"x_min":0,"x_max":604,"ha":604,"o":"m 251 83 l 441 83 l 441 284 l 193 284 l 193 649 l 482 649 q 499 649 511 637 q 523 625 523 608 q 523 591 511 579 q 499 567 482 567 l 276 567 l 276 366 l 441 366 q 474 366 499 342 q 523 317 523 284 l 523 83 q 523 49 499 25 q 475 1 441 1 l 251 1 q 226 1 197 13 l 135 39 q 110 49 110 78 q 110 95 121 107 q 132 119 148 119 q 161 119 177 112 l 231 89 q 241 83 251 83 z"}}}
